Voyo webrip downloaded from YouTube

Format                                   : Flash Video
File size                                : 182 MiB
Duration                                 : 44mn 12s
Overall bit rate                         : 575 Kbps
httphostheader                           :

Video
Format                                   : AVC
Format/Info                              : Advanced Video Codec
Format profile                           : Main@L3.0
Format settings, CABAC                   : Yes
Format settings, ReFrames                : 3 frames
Codec ID                                 : 7
Duration                                 : 44mn 12s
Bit rate                                 : 438 Kbps
Width                                    : 850 pixels
Height                                   : 480 pixels
Display aspect ratio                     : 16:9
Frame rate mode                          : Constant
Frame rate                               : 25.000 fps
Color space                              : YUV
Chroma subsampling                       : 4:2:0
Bit depth                                : 8 bits
Scan type                                : Progressive
Bits/(Pixel*Frame)                       : 0.043
Stream size                              : 138 MiB (76%)

Audio
Format                                   : AAC
Format/Info                              : Advanced Audio Codec
Format profile                           : LC
Codec ID                                 : 10
Duration                                 : 44mn 12s
Bit rate                                 : 129 Kbps
Channel(s)                               : 2 channels
Channel positions                        : Front: L R
Sampling rate                            : 44.1 KHz
Compression mode                         : Lossy
Stream size                              : 40.7 MiB (22%)

